<?xml version="1.0" encoding="utf-8"?>
<!-- Generator: Adobe Illustrator 24.0.1, SVG Export Plug-In . SVG Version: 6.00 Build 0)  -->
<svg version="1.1" baseProfile="tiny" id="Layer_1" xmlns="http://www.w3.org/2000/svg"
     xmlns:xlink="http://www.w3.org/1999/xlink"
     x="0px" y="0px" viewBox="0 0 2080 978.23" xml:space="preserve">
<path fill="#01C4FF" stroke="#01C4FF" stroke-width="0.75" stroke-miterlimit="10" d="M163.14,562.69v317.03
	c0,16.97-13.76,30.74-30.74,30.74h-24.78c-16.97,0-30.74-13.76-30.74-30.74V647.57c0-16.97-13.76-30.74-30.74-30.74h-0.92
	c-16.97,0-30.74-13.76-30.74-30.74v-23.4c0-16.97,13.76-30.74,30.74-30.74h87.18C149.38,531.96,163.14,545.72,163.14,562.69z"/>
    <path d="M948.71,660.25l-117.14,0c-18.13,0-32.88,13.89-32.88,30.95v188.41c0,17.07,14.75,30.95,32.88,30.95h18.15
	c18.13,0,32.88-13.88,32.88-30.95v-106.3c1.31-15.08,8.97-33.12,37.67-34.76c0.84-0.05,1.64-0.1,2.41-0.16h26.03
	c18.13,0,32.88-13.88,32.88-30.95V691.2C981.59,674.13,966.84,660.25,948.71,660.25z"/>
    <path d="M1772.56,696.92v174.23c0,16.94-14.04,30.67-31.37,30.67h-21.6c-16.24,0-29.4-12.87-29.4-28.75V698.02
	c0-16.84,13.96-30.49,31.18-30.49h21.11C1759.1,667.52,1772.56,680.69,1772.56,696.92z"/>
    <path d="M1624.84,666.72h-20.7c-13.83,0-25.57,9.01-29.72,21.46c-21.3-17.14-48.33-27.44-77.73-27.44
	c-68.48,0-124.19,55.71-124.19,124.19s55.71,124.19,124.19,124.19c29.23,0,56.11-10.18,77.35-27.14
	c3.64,12.22,14.96,21.16,28.35,21.16h21.18c17.38,0,31.52-14.14,31.52-31.52V696.96C1655.09,680.28,1641.52,666.72,1624.84,666.72z
	 M1496.69,832.29c-26.11,0-47.35-21.24-47.35-47.35s21.24-47.35,47.35-47.35s47.35,21.24,47.35,47.35S1522.8,832.29,1496.69,832.29z
	"/>
    <g>
	<path d="M1118.07,910.27c-68.91,0-124.97-56.06-124.97-124.97s56.06-124.97,124.97-124.97c68.91,0,124.97,56.06,124.97,124.97
		S1186.98,910.27,1118.07,910.27z M1118.07,737.17c-26.54,0-48.13,21.59-48.13,48.13c0,26.54,21.59,48.13,48.13,48.13
		s48.13-21.59,48.13-48.13C1166.2,758.76,1144.61,737.17,1118.07,737.17z"/>
</g>
    <circle fill="#00001A" stroke="#000000" stroke-width="2" stroke-miterlimit="10" cx="1310.43" cy="859.55" r="50.08"/>
    <path d="M733.67,811.48c17.94-1.23,31.91-16.54,31.8-34.84c-0.4-66.59-54.38-116.81-125.56-116.81
	c-69.06,0-125.24,56.18-125.24,125.24c0,69.06,56.18,125.24,125.24,125.24c15.4,0,54.34-2.06,83.18-21.15
	c7.76-5.14,13.28-13.37,15.15-22.6c1.81-8.95,0.11-17.94-4.79-25.32c-5.11-7.68-12.9-12.88-21.96-14.64
	c-9.05-1.75-18.23,0.15-25.83,5.36c-8.72,5.98-27.1,9.99-45.74,9.99c-21.33,0-40.7-12.12-50.38-30.52h138.74
	C730.06,811.59,731.88,811.61,733.67,811.48z M591.96,754.51c10.31-16.11,28.33-26.31,47.94-26.31c24.02,0,42.48,9.63,51.45,26.31
	H591.96z"/>
    <path d="M481.91,787.63c0-2.94-0.14-5.85-0.33-8.75l0-0.57l-0.04,0.01c-4.79-65.78-59.8-117.85-126.78-117.85h-8.44
	c-2.25,0-4.49,0.06-6.72,0.18c-0.7-0.04-1.41-0.06-2.12-0.06h-37.91v-81.99v-15.44c0-16.28-13.2-29.48-29.48-29.48h-20.7
	c-16.88,0-30.57,13.69-30.57,30.57v15.44v126.09v33.98v15.44v126.09c0,15.92,12.9,28.82,28.82,28.82h21.18
	c16.98,0,30.75-13.77,30.75-30.75V773.69c6.01-20.13,24.69-34.84,46.74-34.84h8.44c26.9,0,48.79,21.89,48.79,48.78v73.88
	c0,1.18,0.06,2.35,0.16,3.5l-0.03,16.41c0,15.92,12.85,28.82,28.7,28.82h21.08c16.91,0,28.22-11.36,28.22-28.34l-0.01-15.96
	c0.16-1.46,0.26-2.94,0.26-4.44V787.63z"/>
    <g>
	<path fill="none" stroke="#01C4FF" stroke-width="2" stroke-miterlimit="10" d="M1831.64,497.96"/>
        <path fill="none" stroke="#01C4FF" stroke-width="2" stroke-miterlimit="10" d="M1766.38,620.4"/>
        <g>

			<ellipse fill="#00001A" stroke="#01C4FF" stroke-width="0.75" stroke-miterlimit="10" cx="1553.31" cy="313.34"
                     rx="36.21" ry="35.41"/>

            <ellipse fill="#00001A" stroke="#01C4FF" stroke-width="0.75" stroke-miterlimit="10" cx="1817.4" cy="313.34"
                     rx="36.21" ry="35.41"/>
            <path fill="#00001A" d="M1325.71,126.82l45.63,77.57c0.45,0.77,0.41,1.72-0.1,2.45c-20.52,29.55-32.52,65.18-32.52,103.51v2.2
			c0,102.04,84.59,184.76,188.95,184.76h218.91l0,0c1.75,0,2.82,1.92,1.91,3.42l-50.25,82.42c-10.35,16.97-4.98,39.11,11.99,49.46h0
			c16.97,10.35,39.11,4.98,49.46-11.99l71.63-117.48c2.11-3.47,5.81-5.8,9.87-5.82c0.03,0,0.05,0,0.08,0h0
			c104.35,0,188.95-82.72,188.95-184.76v-2.2c0-42.89-15.03-82.41-40.21-113.8c-0.59-0.74-0.67-1.76-0.19-2.58l40.28-68.48
			c0.45-0.76,0.42-1.71-0.07-2.44c-3-4.47-13.2-19.52-4.57-20.64c22.75-2.95-4.15,17.19,10.29,0c4.89-5.82,38.37,16.56,4.29-1.86
			c-19.94-10.78,6.64-21.81,3.43,0.14c-1.62,11.1-25.62,6.42-34.82,3.14c-0.85-0.3-1.79-0.08-2.41,0.56l-53.01,54.86
			c-0.78,0.81-2.02,0.92-2.94,0.28c-30.82-21.37-68.44-33.95-109.02-33.95h-313.6c-44.18,0-84.85,14.91-117.06,39.84
			c-0.92,0.71-2.23,0.63-3.04-0.21l-54.73-56.63 M1940.33,312.56c0,53.49-44.35,96.86-99.06,96.86h-313.6
			c-54.71,0-99.06-43.37-99.06-96.86v-2.2c0-53.49,44.35-96.86,99.06-96.86h313.6c54.71,0,99.06,43.37,99.06,96.86V312.56z"/>

            <ellipse fill="#00001A" stroke="#01C4FF" stroke-width="0.75" stroke-miterlimit="10" cx="1320.93" cy="91.83"
                     rx="36.21" ry="35.41"/>

            <ellipse fill="#00001A" stroke="#01C4FF" stroke-width="0.75" stroke-miterlimit="10" cx="2037.82" cy="91.83"
                     rx="36.21" ry="35.41"/>

            <ellipse fill="#00001A" stroke="#01C4FF" stroke-width="0.75" stroke-miterlimit="10" cx="1729.06" cy="602.4"
                     rx="36.21" ry="35.41"/>

            <ellipse fill="#00001A" stroke="#01C4FF" stroke-width="0.75" stroke-miterlimit="10" cx="1774.02" cy="527.72"
                     rx="35.71" ry="35.68"/>
	</g>

        <ellipse fill="none" stroke="#01C4FF" stroke-width="0.75" stroke-miterlimit="10" cx="1840.13" cy="311.12"
                 rx="190.05" ry="185.84"/>

        <ellipse fill="none" stroke="#01C4FF" stroke-width="0.75" stroke-miterlimit="10" cx="1528.58" cy="311.12"
                 rx="190.05" ry="185.84"/>

        <line fill="none" stroke="#01C4FF" stroke-width="0.75" stroke-miterlimit="10" x1="1698.45" y1="583.46"
              x2="1745.19" y2="506.69"/>

        <line fill="none" stroke="#01C4FF" stroke-width="0.75" stroke-miterlimit="10" x1="1759.51" y1="621.59"
              x2="1806.11" y2="543.38"/>
</g>
</svg>
