<svg width="24" height="24" viewBox="0 0 24 24" fill="#C7C7CC" xmlns="http://www.w3.org/2000/svg">
    <path fill-rule="evenodd" clip-rule="evenodd"
          d="M14.896 2.4207C12.8393 1.79842 10.6368 1.85517 8.61493 2.58255C6.59301 3.30993 4.85916 4.66924 3.67023 6.45912C2.4813 8.24901 1.90052 10.3742 2.01395 12.52C2.12737 14.6658 2.92895 16.718 4.29995 18.3726C5.67095 20.0271 7.53843 21.1961 9.62577 21.7063C11.7131 22.2164 13.9093 22.0407 15.8889 21.205C16.3977 20.9903 16.6361 20.4037 16.4213 19.8949C16.2065 19.3861 15.6199 19.1477 15.1111 19.3625C13.5274 20.031 11.7705 20.1716 10.1006 19.7634C8.43075 19.3553 6.93676 18.4201 5.83996 17.0965C4.74316 15.7728 4.10189 14.1311 4.01116 12.4145C3.92042 10.6978 4.38504 8.99764 5.33618 7.56574C6.28733 6.13383 7.67441 5.04638 9.29194 4.46448C10.9095 3.88258 12.6714 3.83718 14.3168 4.335C15.9621 4.83283 17.4034 5.8474 18.427 7.22842C19.4506 8.60944 20.0022 10.2834 20 12.0025V13.5038C20 13.9016 19.842 14.2831 19.5607 14.5644C19.2794 14.8457 18.8978 15.0038 18.5 15.0038C18.1022 15.0038 17.7206 14.8457 17.4393 14.5644C17.158 14.2831 17 13.9016 17 13.5038V12.0081C17 12.0067 17 12.0052 17 12.0037C17 9.2423 14.7614 7.00372 12 7.00372C9.23858 7.00372 7 9.2423 7 12.0037C7 14.7651 9.23858 17.0037 12 17.0037C13.4159 17.0037 14.6944 16.4152 15.6041 15.4694C15.7272 15.6507 15.8679 15.8214 16.0251 15.9786C16.6815 16.635 17.5717 17.0038 18.5 17.0038C19.4283 17.0038 20.3185 16.635 20.9749 15.9786C21.6312 15.3222 22 14.432 22 13.5038V12.005V12.0038H21L22 12.005C22.0028 9.85626 21.3133 7.76375 20.0338 6.03747C18.7542 4.3112 16.9527 3.04299 14.896 2.4207ZM15 12.002C15 12.0026 15 12.0032 15 12.0038V12.0071C14.9982 13.6624 13.6557 15.0037 12 15.0037C10.3431 15.0037 9 13.6606 9 12.0037C9 10.3469 10.3431 9.00372 12 9.00372C13.6563 9.00372 14.9991 10.346 15 12.002Z"
          fill="inherit"/>
</svg>
