<svg width="24" height="24" viewBox="0 0 24 24" fill="#C7C7cc" xmlns="http://www.w3.org/2000/svg">
    <path fill-rule="evenodd" clip-rule="evenodd"
          d="M12 18C8.61278 18 5.65779 16.1305 3.15986 12C5.65779 7.86948 8.61278 6 12 6C15.3872 6 18.3422 7.86948 20.8401 12C18.3422 16.1305 15.3872 18 12 18ZM12 4C7.51999 4 3.9072 6.64709 1.13177 11.5038C0.956077 11.8113 0.956077 12.1887 1.13177 12.4962C3.9072 17.3529 7.51999 20 12 20C16.48 20 20.0928 17.3529 22.8682 12.4962C23.0439 12.1887 23.0439 11.8113 22.8682 11.5038C20.0928 6.64709 16.48 4 12 4ZM10 12C10 10.8954 10.8954 10 12 10C13.1046 10 14 10.8954 14 12C14 13.1046 13.1046 14 12 14C10.8954 14 10 13.1046 10 12ZM12 8C9.79086 8 8 9.79086 8 12C8 14.2091 9.79086 16 12 16C14.2091 16 16 14.2091 16 12C16 9.79086 14.2091 8 12 8Z"
          fill="inherit"/>
</svg>
