<svg width="24" height="24" viewBox="0 0 24 24" fill="#C7C7CC" xmlns="http://www.w3.org/2000/svg">
    <path fill-rule="evenodd" clip-rule="evenodd"
          d="M2.29289 2.29289C2.68342 1.90237 3.31658 1.90237 3.70711 2.29289L9.96803 8.55382C10.5635 8.20193 11.2582 8 12 8C14.2091 8 16 9.79086 16 12C16 12.7418 15.7981 13.4365 15.4462 14.032L17.9832 16.569C18.0385 16.6134 18.0897 16.6643 18.1356 16.7214L21.7071 20.2929C22.0976 20.6834 22.0976 21.3166 21.7071 21.7071C21.3166 22.0976 20.6834 22.0976 20.2929 21.7071L17.206 18.6203C15.6047 19.5367 13.8653 20 12 20C7.51999 20 3.9072 17.3529 1.13177 12.4962C0.956057 12.1887 0.956079 11.8112 1.13182 11.5037C2.30972 9.44307 3.63695 7.77713 5.12709 6.5413L2.29289 3.70711C1.90237 3.31658 1.90237 2.68342 2.29289 2.29289ZM13.9323 12.518C13.9764 12.3528 14 12.1792 14 12C14 10.8954 13.1046 10 12 10C11.8208 10 11.6472 10.0236 11.482 10.0677L13.9323 12.518ZM10.0677 11.482L12.518 13.9323C12.3528 13.9764 12.1792 14 12 14C10.8954 14 10 13.1046 10 12C10 11.8208 10.0236 11.6472 10.0677 11.482ZM8.55382 9.96803C8.20193 10.5635 8 11.2582 8 12C8 14.2091 9.79086 16 12 16C12.7418 16 13.4365 15.7981 14.032 15.4462L15.7281 17.1423C14.5638 17.7158 13.3253 18 12 18C8.61281 18 5.65785 16.1306 3.15993 12.0001C4.2122 10.2612 5.34564 8.92592 6.54861 7.96283L8.55382 9.96803ZM11.9965 5.99999C11.1989 5.99717 10.4049 6.10707 9.63803 6.32643C9.10705 6.47833 8.55346 6.17102 8.40157 5.64003C8.24967 5.10905 8.55698 4.55546 9.08797 4.40356C10.0354 4.13254 11.0164 3.99667 12.0018 4C16.481 4.0007 20.0932 6.64773 22.8682 11.5038C23.0439 11.8113 23.0439 12.1888 22.8682 12.4963C22.0598 13.9104 21.1827 15.1375 20.2314 16.1668C19.8565 16.5723 19.2238 16.5972 18.8182 16.2224C18.4127 15.8475 18.3878 15.2148 18.7626 14.8092C19.486 14.0266 20.1793 13.092 20.8401 11.9999C18.3422 7.86945 15.3872 6 12 6L11.9965 5.99999Z"
          fill="inherit"/>
</svg>
